# xmcd CD database file
#
# Track frame offsets:
#	187
#	14600
#	31400
#	44600
#	68600
#	88400
#	103175
#	116550
#	127325
#	140150
#	152375
#	168500
#	181850
#
# Disc length: 2561 seconds
#
# Revision: 2
# Processed by: cddbd v1.5.2PL0 Copyright (c) Steve Scherf et al.
# Submitted via: CDex 1.51
#
DISCID=bb09ff0d
DTITLE=Peter Case - Sings Like Hell
DYEAR=1994
DGENRE=Blues
TTITLE0=Brokedown Engine
TTITLE1=Rovin' Gambler
TTITLE2=So Glad You're Mine
TTITLE3=Lakes Of Ponchartrain
TTITLE4=Walkin' Bum
TTITLE5=How 'Bout You
TTITLE6=Matchbox Blues
TTITLE7=Rose Conolly
TTITLE8=Down In The Alley
TTITLE9=Waltz Of The Angels
TTITLE10=Well Runs Dry
TTITLE11=North Coast Blues
TTITLE12=Down The Line
EXTD=YEAR: 1994
EXTT0=Traditional, Arr. by Peter Case\n
EXTT1=Traditional\n
EXTT2=Arthur Crudup\n
EXTT3=Traditional\n
EXTT4=Hank Mills\n
EXTT5=Jesse Winchester\n
EXTT6=Blind Lemon Jefferson\n
EXTT7=Traditional, Arr. by Peter Case\n
EXTT8=Traditional\n
EXTT9=Rhodes/Reynolds\n
EXTT10=Traditional, Arr. by Peter Case\n
EXTT11=Peter Case\n
EXTT12=Roy Orbison\n
PLAYORDER=
